PathFileType	4	(X/Y/Z)	/Users/itak/Documents/Research/Walk-IL/dataset/trc/00516_00183.trc
DataRate	CameraRate	NumFrames	NumMarkers	Units	OrigDataRate	OrigDataStartFrame	OrigNumFrames
100.000000	100.000000	4	54	mm	100.000000	327	437
Frame#	Time	RPSI			LPSI			L3			STRN			T10			C7			CLAV			RBAK			LBAK			LSHO			LUPA			LAEL			LAOL			LWTS			LWPS			LFRA			LHPS			LHTS			RSHO			RUPA			RAEL			RAOL			RWTS			RWPS			RFRA			RIFD			RHTS			RHPS			RBHD			LFHD			RFHD			LBHD			LHIP			RHIP			RASI			LASI			LKNE			LTHI			LANK			LTIP			LTOE			LMT1			LMT5			LHEE			RKNE			RTHI			RANK			RTIP			RTOE			RMT1			RMT5			RHEE			LIFD			*53			
		X1	Y1	Z1	X2	Y2	Z2	X3	Y3	Z3	X4	Y4	Z4	X5	Y5	Z5	X6	Y6	Z6	X7	Y7	Z7	X8	Y8	Z8	X9	Y9	Z9	X10	Y10	Z10	X11	Y11	Z11	X12	Y12	Z12	X13	Y13	Z13	X14	Y14	Z14	X15	Y15	Z15	X16	Y16	Z16	X17	Y17	Z17	X18	Y18	Z18	X19	Y19	Z19	X20	Y20	Z20	X21	Y21	Z21	X22	Y22	Z22	X23	Y23	Z23	X24	Y24	Z24	X25	Y25	Z25	X26	Y26	Z26	X27	Y27	Z27	X28	Y28	Z28	X29	Y29	Z29	X30	Y30	Z30	X31	Y31	Z31	X32	Y32	Z32	X33	Y33	Z33	X34	Y34	Z34	X35	Y35	Z35	X36	Y36	Z36	X37	Y37	Z37	X38	Y38	Z38	X39	Y39	Z39	X40	Y40	Z40	X41	Y41	Z41	X42	Y42	Z42	X43	Y43	Z43	X44	Y44	Z44	X45	Y45	Z45	X46	Y46	Z46	X47	Y47	Z47	X48	Y48	Z48	X49	Y49	Z49	X50	Y50	Z50	X51	Y51	Z51	X52	Y52	Z52	X53	Y53	Z53	X54	Y54	Z54	

328	3.27	659.034423828125	933.5015869140625	-23.95090103149414	708.0448608398438	929.2251586914062	-137.9002838134766	684.1028442382812	1008.440185546875	-88.01029968261719	884.2876586914062	1177.2216796875	-3.566854953765869	671.9284057617188	1112.171020507812	-87.68275451660156	707.3998413085938	1343.335815429688	-67.51064300537109	849.6555786132812	1272.218627929688	-13.36629295349121	632.2164306640625	1219.483764648438	-9.156987190246582	717.4335327148438	1289.5517578125	-158.8946685791016	829.59423828125	1342.95361328125	-191.1445007324219	845.4859008789062	1220.01904296875	-255.5056304931641	870.5916748046875	1013.152709960938	-289.5260314941406	783.3449096679688	998.259033203125	-244.3893432617188	949.3535766601562	823.502685546875	-241.9783782958984	884.4375	789.2448120117188	-301.416259765625	889.8885498046875	927.6571655273438	-292.7989501953125	909.1088256835938	736.5194702148438	-295.6385803222656	964.8589477539062	748.0823364257812	-263.5614318847656	700.1146850585938	1335.39892578125	89.83916473388672	660.37158203125	1268.394653320312	130.9108734130859	622.1483764648438	1003.661071777344	157.5888519287109	599.6451416015625	991.85595703125	96.09957885742188	698.0045776367188	789.0695190429688	178.1578369140625	606.3930053710938	775.3720092773438	171.0995941162109	615.6976928710938	949.4816284179688	162.1557006835938	675.587646484375	631.4984130859375	172.7695770263672	682.5095825195312	696.4717407226562	200.6946868896484	616.0611572265625	704.3644409179688	179.0464019775391	693.8707275390625	1489.470703125	17.75889587402344	870.2314453125	1573.154296875	-26.09121513366699	797.2752075195312	1557.62060546875	77.50817108154297	773.5032958984375	1503.146484375	-120.017707824707	863.4180297851562	864.355224609375	-213.4308929443359	716.5626831054688	838.1683349609375	132.8610687255859	828.0453491210938	894.5741577148438	109.5753707885742	917.6534423828125	908.5420532226562	-114.9674606323242	993.9275512695312	464.3894653320312	-144.8980255126953	956.2772827148438	617.8953857421875	-171.1669921875	690.9981689453125	212.0942840576172	-316.0299682617188	913.810791015625	366.308837890625	-198.4748382568359	762.8790283203125	44.95994567871094	-238.2779541015625	712.6785278320312	101.0462036132812	-217.2184295654297	742.7005615234375	117.744758605957	-316.6719055175781	644.1409912109375	241.7070007324219	-265.1485290527344	829.65771484375	462.1003112792969	70.11143493652344	765.033447265625	710.9263305664062	135.885009765625	816.0211791992188	45.03009796142578	-36.58684921264648	861.4408569335938	319.7550048828125	41.63035202026367	1007.773742675781	32.6979866027832	40.33169937133789	974.95654296875	37.49639511108398	-28.96636581420898	902.4777221679688	36.31576538085938	35.35812759399414	801.8130493164062	36.39433288574219	-105.4304122924805	955.5657958984375	667.4078369140625	-241.4105682373047	nan	nan	nan	
329	3.28	666.9984741210938	934.6277465820312	-21.52773666381836	717.8500366210938	930.3907470703125	-134.5763549804688	692.805419921875	1009.440673828125	-84.58269500732422	891.3907470703125	1178.88330078125	2.314511299133301	680.4984130859375	1113.11572265625	-84.21480560302734	715.0137939453125	1344.363891601562	-63.84558868408203	856.6735229492188	1273.796630859375	-8.133450508117676	639.3895874023438	1220.457397460938	-5.913027763366699	726.0355224609375	1290.480590820312	-154.92333984375	838.340576171875	1343.976440429688	-186.2262725830078	854.5625	1221.067260742188	-250.4275817871094	878.9841918945312	1014.083129882812	-284.0838623046875	791.4694213867188	999.5979614257812	-239.4207611083984	955.4918212890625	822.9116821289062	-236.0847930908203	890.7389526367188	789.668212890625	-296.3011474609375	897.7197875976562	928.3831176757812	-287.290283203125	914.3949584960938	736.5792846679688	-290.1119384765625	969.8819580078125	747.03857421875	-257.2239074707031	706.10400390625	1336.964477539062	93.38884735107422	666.3048095703125	1270.01318359375	134.5989990234375	630.7737426757812	1004.91357421875	163.6448516845703	608.2171020507812	992.2298583984375	102.3435134887695	710.6149291992188	792.2390747070312	186.8370513916016	619.3092041015625	776.5532836914062	180.2319946289062	625.1151733398438	950.6985473632812	168.7991943359375	691.5014038085938	634.299560546875	184.7927703857422	697.050048828125	699.9454956054688	211.3782348632812	630.4385986328125	705.9893798828125	189.6031036376953	701.05029296875	1491.326538085938	21.34581184387207	878.2130737304688	1574.040283203125	-21.39981269836426	804.4697875976562	1558.982788085938	81.75761413574219	781.6840209960938	1504.472534179688	-115.9075241088867	875.4425659179688	866.2548217773438	-206.8811340332031	721.3775024414062	838.8048095703125	136.1147003173828	833.3411254882812	895.381103515625	115.2953491210938	926.8106079101562	910.397705078125	-107.5080718994141	1009.690612792969	468.717529296875	-131.2077331542969	970.6175537109375	621.3162841796875	-160.5687713623047	717.8966674804688	206.3527221679688	-307.8218994140625	933.0490112304688	369.0603942871094	-186.1155700683594	795.62646484375	43.95415878295898	-226.2892761230469	742.4564819335938	97.76191711425781	-207.0190582275391	773.702880859375	114.4383316040039	-306.15771484375	669.0115966796875	234.6121215820312	-258.2957458496094	831.3781127929688	461.7315673828125	72.50431823730469	769.1975708007812	711.1675415039062	139.1671600341797	815.9179077148438	44.9515266418457	-36.43800354003906	862.1013793945312	319.4004211425781	43.03670501708984	1007.735656738281	32.6983757019043	40.39937973022461	974.7306518554688	37.57924270629883	-28.69485473632812	902.3853759765625	36.12358093261719	35.6221923828125	801.6798095703125	36.63204956054688	-105.3096771240234	958.6189575195312	666.5709228515625	-235.0130615234375	nan	nan	nan	
330	3.29	674.9432983398438	935.656494140625	-19.31060791015625	727.7407836914062	931.4519653320312	-131.4010162353516	701.486572265625	1010.307556152344	-81.34486389160156	898.3860473632812	1180.412353515625	8.284257888793945	689.0274658203125	1113.960815429688	-80.88223266601562	722.5816040039062	1345.27587890625	-60.19427871704102	863.5892333984375	1275.226440429688	-2.822781085968018	646.5178833007812	1221.25341796875	-2.727548837661743	734.666259765625	1291.3203125	-150.9683685302734	847.1319580078125	1344.9072265625	-181.2287292480469	863.6097412109375	1222.030883789062	-245.2992858886719	887.2601318359375	1014.935852050781	-278.6925354003906	799.4512939453125	1000.859252929688	-234.4982757568359	961.660400390625	822.4385986328125	-230.1030426025391	897.2334594726562	790.084228515625	-291.1887817382812	905.5108032226562	929.0929565429688	-281.7899475097656	919.931884765625	736.682861328125	-284.5293579101562	975.0725708007812	746.15869140625	-250.7629699707031	711.9234619140625	1338.349609375	96.91240692138672	672.04931640625	1271.429321289062	138.2050476074219	639.1444091796875	1006.002136230469	169.5762329101562	616.73974609375	992.4005737304688	108.4097213745117	723.1575927734375	795.4649658203125	195.5848693847656	632.256591796875	777.71630859375	189.3087463378906	634.3209228515625	951.7776489257812	175.3359527587891	707.6438598632812	637.2669677734375	196.7012634277344	711.6404418945312	703.505615234375	222.0178527832031	644.9472045898438	707.6068115234375	200.0300750732422	708.1539916992188	1493.114135742188	24.89357948303223	886.0934448242188	1574.798828125	-16.79482841491699	811.5921630859375	1560.344360351562	85.91048431396484	789.7799072265625	1505.5732421875	-111.822135925293	887.3578491210938	868.0810546875	-200.4399719238281	726.0316162109375	839.40380859375	139.1951293945312	838.4762573242188	896.1016235351562	120.9683609008789	935.9044799804688	912.1177978515625	-99.97974395751953	1024.78125	472.9940490722656	-117.3332824707031	984.632568359375	624.6842651367188	-149.7586975097656	745.121337890625	199.9128723144531	-298.8719177246094	951.8379516601562	371.420166015625	-173.4441375732422	829.0745849609375	42.91670989990234	-213.2915954589844	772.8674926757812	94.12197875976562	-195.9240264892578	805.29541015625	110.9207077026367	-294.7184448242188	694.163818359375	226.5555725097656	-250.7957305908203	833.0347290039062	461.3447875976562	74.91752624511719	773.2155151367188	711.381591796875	142.3735046386719	815.82568359375	44.88977432250977	-36.291015625	862.7488403320312	319.0618896484375	44.41928482055664	1007.696838378906	32.69888687133789	40.46633911132812	974.52197265625	37.68287658691406	-28.42531967163086	902.2855224609375	35.9317512512207	35.89511871337891	801.5239868164062	36.89634323120117	-105.1582946777344	961.9609375	665.9082641601562	-228.4965667724609	nan	nan	nan	
331	3.3	682.8690795898438	936.561279296875	-17.26274871826172	737.7192993164062	932.3960571289062	-128.3464965820312	710.1305541992188	1011.0263671875	-78.28114318847656	905.281494140625	1181.77490234375	14.31699752807617	697.5079345703125	1114.697387695312	-77.64299011230469	730.11865234375	1346.05419921875	-56.54641342163086	870.4202270507812	1276.4755859375	2.556717157363892	653.6149291992188	1221.86083984375	0.4114398658275604	743.3259887695312	1292.055541992188	-147.0198059082031	855.9737548828125	1345.72607421875	-176.1521148681641	872.6344604492188	1222.888427734375	-240.1116485595703	895.455810546875	1015.685546875	-273.3247375488281	807.3154907226562	1002.029113769531	-229.6075897216797	967.8763427734375	822.057861328125	-224.0491027832031	903.9019165039062	790.4588012695312	-286.05322265625	913.2747802734375	929.7385864257812	-276.2859191894531	925.7284545898438	736.801025390625	-278.8963317871094	980.4560546875	745.4255981445312	-244.225341796875	717.60205078125	1339.52001953125	100.4171829223633	677.6414794921875	1272.60205078125	141.7404327392578	647.2936401367188	1006.890930175781	175.4043579101562	625.2169799804688	992.3262939453125	114.3376235961914	735.6236572265625	798.7083129882812	204.3630523681641	645.2327880859375	778.8549194335938	198.3443450927734	643.3434448242188	952.6770629882812	181.7931365966797	723.9512939453125	640.3704223632812	208.4469757080078	726.2701416015625	707.1141357421875	232.56884765625	659.57958984375	709.1997680664062	210.3196868896484	715.1953735351562	1494.775146484375	28.41685485839844	893.8634643554688	1575.426147460938	-12.26104259490967	818.6338500976562	1561.680053710938	89.97858428955078	797.8065185546875	1506.4140625	-107.7440185546875	899.1568603515625	869.7998046875	-194.0711669921875	730.538330078125	839.933349609375	142.1144409179688	843.4727783203125	896.710693359375	126.5864868164062	944.9266357421875	913.6847534179688	-92.39131164550781	1039.205444335938	477.1748046875	-103.3385620117188	998.2772827148438	627.9491577148438	-138.7731323242188	772.6654052734375	192.8989715576172	-289.1059265136719	970.1776733398438	373.3935546875	-160.4911041259766	863.0321655273438	41.95948791503906	-199.2905578613281	803.8001098632812	90.233642578125	-183.90771484375	837.3493041992188	107.3234176635742	-282.3258361816406	719.6007080078125	217.6523284912109	-242.5260162353516	834.6375732421875	460.9368591308594	77.32393646240234	777.0896606445312	711.5374755859375	145.5054016113281	815.7534790039062	44.84650802612305	-36.15644836425781	863.4037475585938	318.7272338867188	45.79033660888672	1007.65673828125	32.70258712768555	40.53228759765625	974.3321533203125	37.80408096313477	-28.16288757324219	902.1798706054688	35.75019454956055	36.16563034057617	801.3630981445312	37.1811637878418	-104.9903717041016	965.6728515625	665.3968505859375	-221.9171295166016	nan	nan	nan	
